<svg width="90" height="80" viewBox="0 0 90 80" xmlns="http://www.w3.org/2000/svg">
  <path d="M30.783 53.649c-8.608.174-14.652.732-18.856 1.367C5.872 64.926 2.037 73.715 0 78.966a15.1 15.1 0 0 0 6.136 1.297c6.371 0 11.684-4.499 12.958-9.53 1.276 5.031 6.59 8.834 12.96 8.834 6.394 0 11.727-3.76 12.974-8.819 1.253 5.059 6.583 8.956 12.977 8.956 6.358 0 11.669-3.584 12.952-8.601 1.283 5.017 6.594 9.154 12.951 9.154 3.099 0 5.943-.945 8.197-2.412-9.72-15.093-11.467-34.857-10.818-50.698-2.133.018-5.162.277-9.432 1.057 4.404-2.467 7.491-3.487 9.571-3.855.838-14.033 3.394-24.35 3.394-24.35-35.58 7.49-58.129 31.84-71.275 52.422 4.136-.004 9.711.312 17.238 1.228" fill="#fff"/>
</svg>